<svg width="70" height="70" viewBox="0 0 70 70" fill="none" xmlns="http://www.w3.org/2000/svg">
<rect x="2.5" y="2.5" width="65" height="65" rx="32.5" stroke="white" stroke-width="5"/>
<path d="M47 21.8739C46.9998 21.5966 46.9382 21.3228 46.8194 21.0722C46.7007 20.8216 46.5279 20.6005 46.3134 20.4247C46.0989 20.249 45.8481 20.123 45.579 20.0558C45.31 19.9887 45.0294 19.982 44.7575 20.0364L26.0075 23.7865C25.5826 23.8714 25.2002 24.1009 24.9254 24.4359C24.6506 24.7709 24.5003 25.1908 24.5 25.6241V42.7135C23.8852 42.5707 23.2561 42.499 22.625 42.4997C19.5181 42.4997 17 44.1779 17 46.2499C17 48.3218 19.5181 50 22.625 50C25.7319 50 28.25 48.3218 28.25 46.2499V30.9118L43.25 27.9117V38.9633C42.6352 38.8206 42.0061 38.7489 41.375 38.7496C38.2681 38.7496 35.75 40.4278 35.75 42.4997C35.75 44.5717 38.2681 46.2499 41.375 46.2499C44.4819 46.2499 47 44.5717 47 42.4997V21.8739Z" fill="white"/>
</svg>
