<svg width="70" height="70" viewBox="0 0 70 70" fill="none" xmlns="http://www.w3.org/2000/svg">
<rect x="2.5" y="2.5" width="65" height="65" rx="32.5" stroke="white" stroke-width="5"/>
<path fill-rule="evenodd" clip-rule="evenodd" d="M16.4349 26.1988H24.4418L35.5194 15L37.9588 16.0234V54.0351L35.5194 55L24.4418 43.7427H16.4349L15 42.2807V27.6608L16.4349 26.1988ZM26.0489 41.3158L35.089 50.4971V19.5614L26.0489 28.6842L25.0445 29.1228H17.8699V40.8187H25.0445L26.0489 41.3158ZM52.971 29.3041L55 31.3713L50.0323 36.4327L55 41.4971L52.971 43.5643L48.0033 38.5L43.0327 43.5643L41.0037 41.4971L45.9743 36.4327L41.0009 31.3743L43.0298 29.307L48.0033 34.3655L52.971 29.3041Z" fill="white"/>
</svg>
