<svg width="70" height="70" viewBox="0 0 70 70" fill="none" xmlns="http://www.w3.org/2000/svg">
<rect x="2.5" y="2.5" width="65" height="65" rx="32.5" stroke="white" stroke-width="5"/>
<path d="M22.4745 27.7384C24.2346 24.7006 27.0388 22.406 30.3649 21.2818C33.6909 20.1577 37.3122 20.2806 40.5544 21.6277C43.7966 22.9748 46.4387 25.4543 47.9888 28.6044C49.5389 31.7546 49.8914 35.3608 48.9805 38.7515C48.0697 42.1422 45.9577 45.0863 43.0377 47.0357C40.1177 48.985 36.5888 49.8068 33.108 49.3479C29.6272 48.8891 26.4318 47.1808 24.1167 44.5413C21.8017 41.9018 20.5248 38.5109 20.5238 35" stroke="white" stroke-width="4" stroke-linecap="round" stroke-linejoin="round"/>
<path d="M29.5715 27.7619H22.3334V20.5238" stroke="white" stroke-width="4" stroke-linecap="round" stroke-linejoin="round"/>
</svg>
